<?xml version="1.0" encoding="UTF-8" standalone="no"?><svg xmlns="http://www.w3.org/2000/svg" xmlns:xlink="http://www.w3.org/1999/xlink" contentScriptType="text/ecmascript" fill="#bdbdbd" width="23.8" zoomAndPan="magnify" contentStyleType="text/css" viewBox="4.1 2.0 23.8 28.0" height="28" preserveAspectRatio="xMidYMid meet" version="1"><g><g id="change1_1"><path fill="inherit" d="M25.48,2H9.74c-1.32,0-2.4,1.08-2.4,2.4v19.86c0,1.32,1.08,2.4,2.4,2.4h15.74c1.32,0,2.4-1.07,2.4-2.4V4.4 C27.88,3.08,26.8,2,25.48,2z M25.88,24.26c0,0.22-0.18,0.4-0.4,0.4H9.74c-0.22,0-0.4-0.18-0.4-0.4V4.4c0-0.22,0.18-0.4,0.4-0.4 h15.74c0.22,0,0.4,0.18,0.4,0.4V24.26z"/><path fill="inherit" d="M19.54,28H6.56c-0.24,0-0.44-0.2-0.44-0.44V6.35c0-0.55-0.45-1-1-1s-1,0.45-1,1v21.21c0,1.35,1.09,2.44,2.44,2.44h12.97 c0.55,0,1-0.45,1-1S20.09,28,19.54,28z"/><path fill="inherit" d="M23.01,9.21h-10.3c-0.55,0-1,0.45-1,1s0.45,1,1,1h10.3c0.55,0,1-0.45,1-1S23.57,9.21,23.01,9.21z"/><path fill="inherit" d="M22.76,13.33h-10.3c-0.55,0-1,0.45-1,1s0.45,1,1,1h10.3c0.55,0,1-0.45,1-1S23.31,13.33,22.76,13.33z"/><path fill="inherit" d="M22.5,17.45H12.2c-0.55,0-1,0.45-1,1s0.45,1,1,1h10.3c0.55,0,1-0.45,1-1S23.05,17.45,22.5,17.45z"/></g></g></svg>